<svg width="198" height="32" viewBox="0 0 198 32" fill="none" xmlns="http://www.w3.org/2000/svg">
<path d="M5.9834 6.39464C5.9834 8.70187 6.95419 10.7966 8.53422 12.3809C10.1139 10.7966 11.0847 8.70187 11.0847 6.39464C11.0847 4.08822 10.1139 1.99332 8.53422 0.40902C6.95419 1.99332 5.9834 4.08822 5.9834 6.39464Z" fill="#25554B"/>
<path d="M11.2221 15.0359C9.66478 16.6668 8.93679 18.8673 8.9841 21.1569C11.1706 21.2065 13.2718 20.4441 14.8291 18.8132C16.387 17.1817 17.115 14.9819 17.0677 12.6915C14.8808 12.6422 12.7801 13.4044 11.2221 15.0359Z" fill="#5CC574"/>
<path d="M5.84775 15.0359C7.4051 16.6668 8.13348 18.8673 8.08578 21.1569C5.89923 21.2065 3.7981 20.4441 2.24076 18.8132C0.68342 17.1817 -0.0451713 14.9819 0.0021643 12.6915C2.18907 12.6422 4.29039 13.4044 5.84775 15.0359Z" fill="#5CC574"/>
<path d="M11.2221 7.95934C9.66478 9.59059 8.93679 11.7906 8.9841 14.0807C11.1706 14.1303 13.2718 13.3679 14.8291 11.7367C16.387 10.1058 17.115 7.90518 17.0677 5.61561C14.8808 5.56581 12.7801 6.32844 11.2221 7.95934Z" fill="#FBCC2E"/>
<path d="M5.84775 7.95934C7.4051 9.59059 8.13348 11.7906 8.08578 14.0807C5.89923 14.1303 3.7981 13.3679 2.24076 11.7367C0.68342 10.1058 -0.0451713 7.90518 0.0021643 5.61561C2.18907 5.56581 4.29039 6.32844 5.84775 7.95934Z" fill="#FBCC2E"/>
<path d="M28.2859 15.0359C26.7286 16.6668 26 18.8673 26.0473 21.1569C28.2342 21.2065 30.3356 20.4441 31.8929 18.8132C33.4502 17.1817 34.1787 14.9819 34.1313 12.6915C31.9444 12.6422 29.8432 13.4044 28.2859 15.0359Z" fill="#5CC574"/>
<path d="M22.9119 15.0359C24.4696 16.6668 25.1976 18.8673 25.1502 21.1569C22.9633 21.2065 20.8626 20.4441 19.3049 18.8132C17.7476 17.1817 17.0195 14.9819 17.0669 12.6915C19.2538 12.6422 21.3545 13.4044 22.9119 15.0359Z" fill="#5CC574"/>
<path d="M23.0481 6.39464C23.0481 8.70187 24.019 10.7966 25.5985 12.3809C27.1786 10.7966 28.149 8.70187 28.149 6.39464C28.149 4.08822 27.1786 1.99332 25.5985 0.40902C24.019 1.99332 23.0481 4.08822 23.0481 6.39464Z" fill="#25554B"/>
<path d="M28.2859 7.95934C26.7286 9.59059 26 11.7906 26.0473 14.0807C28.2342 14.1303 30.3356 13.3679 31.8929 11.7367C33.4502 10.1058 34.1787 7.90518 34.1313 5.61561C31.9444 5.56581 29.8432 6.32844 28.2859 7.95934Z" fill="#FBCC2E"/>
<path d="M22.9119 7.95934C24.4696 9.59059 25.1976 11.7906 25.1502 14.0807C22.9633 14.1303 20.8626 13.3679 19.3049 11.7367C17.7476 10.1058 17.0195 7.90518 17.0669 5.61561C19.2538 5.56581 21.3545 6.32844 22.9119 7.95934Z" fill="#FBCC2E"/>
<path d="M26.3877 29.3226V7.81363H24.8118V29.3226H19.5169V24.251C18.6427 23.8245 17.8209 23.2917 17.0674 22.6566C16.3138 23.2917 15.4924 23.8245 14.6182 24.251V29.3226H9.32265V7.81363H7.74693V29.3226H4.04663V31.0889H30.0884V29.3226H26.3877Z" fill="#25554B"/>
<path d="M40.4858 5.33674H49.7046V8.56279H43.8078V16.0709H49.4007V19.2973H43.8078V31.2812H40.4858V5.33674Z" fill="#25554B"/>
<path d="M57.917 22.0153C57.7245 22.0153 57.3241 22.0153 57.1618 22.0153C55.2525 22.0153 54.0513 22.811 54.0513 25.4624V25.7852C54.0513 27.3491 54.5554 28.5333 55.8676 28.5333C57.3392 28.5333 57.917 27.3848 57.917 24.5695V22.0153ZM61.1612 27.4578C61.1612 28.7589 61.1728 30.5934 61.2358 31.2811H58.1845C58.0992 30.8617 57.9843 30.0577 57.9582 29.7513C57.3237 31.0792 56.2335 31.5918 54.824 31.5918C52.0049 31.5918 50.8735 28.9037 50.8735 25.8626V25.5136C50.8735 20.7621 53.8342 19.3335 57.2543 19.3335C57.4279 19.3335 57.6208 19.3335 57.8539 19.3335V16.5301C57.8539 14.8647 57.6281 13.8753 56.331 13.8753C55.06 13.8753 54.7377 14.9034 54.7377 16.2779V16.6887H51.4668V16.3318C51.4668 13.4851 52.5201 11.0065 56.4463 11.0065C59.9775 11.0065 61.1612 13.1543 61.1612 16.262V27.4578Z" fill="#25554B"/>
<path d="M64.5146 18.095C64.5146 14.8203 64.5408 13.2449 64.4778 11.317H67.6333C67.6701 11.7591 67.7331 13.3187 67.7331 14.5024C68.468 11.9035 70.1291 11.0527 71.8581 11.0295V15.3219C69.6071 15.3328 67.8374 16.2632 67.8374 20.1521V31.2812H64.5146V18.095Z" fill="#25554B"/>
<path d="M73.7165 17.0896C73.7165 13.2622 73.7165 12.2449 73.6792 11.317H76.8492C76.9496 11.9152 76.9496 12.4472 76.9753 13.1227C77.6025 11.775 78.712 11.0067 80.2878 11.0067C81.8045 11.0067 82.8544 11.6864 83.3033 13.2241C83.9421 12.0671 84.9324 11.0067 86.9052 11.0067C88.8906 11.0067 90.5958 12.009 90.5958 15.8894V31.2812H87.2741V16.5503C87.2741 15.0864 86.9474 14.1475 85.706 14.1475C84.1825 14.1475 83.8301 15.474 83.8301 17.5207V31.2812H80.4822V16.674C80.4822 14.7175 79.9626 14.1475 78.8923 14.1475C77.3761 14.1475 77.0388 15.4974 77.0388 17.555V31.2812H73.7165V17.0896Z" fill="#25554B"/>
<path d="M93.7009 5.33674H97.0227V15.7946H101.575V5.33674H104.897V31.2812H101.575V18.9945H97.0227V31.2812H93.7009V5.33674Z" fill="#5CC574"/>
<path d="M111.09 17.0855V25.3885C111.09 27.2361 111.653 28.5015 113.107 28.5015C114.463 28.5015 115.082 27.4843 115.082 25.3342V17.0587C115.082 15.343 114.593 14.0968 113.092 14.0968C111.698 14.0968 111.09 15.1486 111.09 17.0855ZM118.416 17.2531V25.21C118.416 29.5094 116.416 31.5918 113.044 31.5918C109.589 31.5918 107.756 29.4902 107.756 25.2681V17.1285C107.756 13.0062 109.931 11.0065 113.155 11.0065C116.505 11.0065 118.416 13.2124 118.416 17.2531Z" fill="#5CC574"/>
<path d="M131.709 25.6326C131.709 28.4228 131.709 30.2748 131.746 31.2811H128.576C128.513 30.8889 128.45 29.9218 128.45 29.3127C127.811 31.0834 126.539 31.5918 124.948 31.5918C123.26 31.5918 121.19 30.8072 121.19 26.4374V11.3168H124.513V25.5318C124.513 27.5894 125.062 28.4625 126.315 28.4625C127.594 28.4625 128.386 27.6356 128.386 24.5315V11.3168H131.709V25.6326Z" fill="#5CC574"/>
<path d="M137.253 25.163V26.0602C137.253 27.5847 137.753 28.6376 139.028 28.6376C140.232 28.6376 140.729 27.8577 140.729 26.317C140.729 24.7611 140.299 23.8563 138.048 22.3216C135.455 20.5585 134.224 19.1292 134.224 16.3092C134.224 13.1113 135.801 11.0065 139.036 11.0065C142.545 11.0065 143.814 13.1573 143.814 16.5422V17.3887H140.596V16.2115C140.596 14.6936 140.14 13.9603 139.039 13.9603C137.964 13.9603 137.531 14.7604 137.531 16.0172C137.531 17.3179 137.931 17.8999 139.737 19.1302C142.85 21.2287 144.088 22.6309 144.088 25.9092C144.088 29.6456 142.371 31.5918 138.917 31.5918C134.861 31.5918 133.894 28.865 133.894 26.0563V25.163H137.253Z" fill="#5CC574"/>
<path d="M153.336 19.391V17.1587C153.336 15.3063 152.979 13.9603 151.389 13.9603C149.926 13.9603 149.384 15.1393 149.384 17.1707V19.391H153.336ZM149.358 22.1551V25.2265C149.358 26.9535 149.714 28.6376 151.338 28.6376C152.973 28.6376 153.22 27.1697 153.22 25.5358V25.4113H156.465V25.5245C156.465 27.71 156.002 31.5918 151.393 31.5918C146.903 31.5918 146.114 28.6155 146.114 24.5721V17.657C146.114 14.8033 147.014 11.0065 151.4 11.0065C155.307 11.0065 156.528 13.8727 156.528 17.6417C156.528 18.7763 156.528 21.0129 156.528 22.1551H149.358Z" fill="#5CC574"/>
<path d="M159.192 5.33674H162.513V15.7946H167.066V5.33674H170.388V31.2812H167.066V18.9945H162.513V31.2812H159.192V5.33674Z" fill="#FBCC2E"/>
<path d="M184.026 25.6326C184.026 28.4228 184.026 30.2748 184.063 31.2811H180.892C180.829 30.8889 180.766 29.9218 180.766 29.3127C180.128 31.0834 178.856 31.5918 177.265 31.5918C175.576 31.5918 173.508 30.8072 173.508 26.4374V11.3168H176.83V25.5318C176.83 27.5894 177.378 28.4625 178.631 28.4625C179.91 28.4625 180.703 27.6356 180.703 24.5315V11.3168H184.026V25.6326Z" fill="#FBCC2E"/>
<path d="M194.667 24.8015V17.4856C194.667 15.4324 194.289 14.1471 192.821 14.1471C191.027 14.1471 190.652 15.7873 190.652 18.2651V24.6825C190.652 27.2362 191.246 28.4281 192.71 28.4281C193.985 28.4281 194.667 27.3058 194.667 24.8015ZM187.341 4.19878H190.664V13.0684C191.254 11.8093 192.389 11.0063 194.054 11.0063C196.846 11.0063 198 13.3992 198 16.9376V24.1717C198 28.5271 197.225 31.5684 193.605 31.5684C191.78 31.5684 190.908 30.621 190.448 29.4523C190.423 30.225 190.396 30.7296 190.322 31.2808H187.304C187.367 30.0182 187.341 28.2431 187.341 26.0809V4.19878Z" fill="#FBCC2E"/>
</svg>
